<svg width="18" height="18" viewBox="0 0 18 18" fill="none" xmlns="http://www.w3.org/2000/svg">
<g clip-path="url(#clip0_2_1092)">
<path fill-rule="evenodd" clip-rule="evenodd" d="M0.48999 0.390015H3.48999V3.39001H0.48999V0.390015Z" fill="#19110B"/>
<path fill-rule="evenodd" clip-rule="evenodd" d="M7.48999 0.390015H10.49V3.39001H7.48999V0.390015Z" fill="#19110B"/>
<path fill-rule="evenodd" clip-rule="evenodd" d="M14.49 0.390015H17.49V3.39001H14.49V0.390015Z" fill="#19110B"/>
<path fill-rule="evenodd" clip-rule="evenodd" d="M0.48999 7.39001H3.48999V10.39H0.48999V7.39001Z" fill="#19110B"/>
<path fill-rule="evenodd" clip-rule="evenodd" d="M7.48999 7.39001H10.49V10.39H7.48999V7.39001Z" fill="#19110B"/>
<path fill-rule="evenodd" clip-rule="evenodd" d="M14.49 7.39001H17.49V10.39H14.49V7.39001Z" fill="#19110B"/>
<path fill-rule="evenodd" clip-rule="evenodd" d="M0.48999 14.39H3.48999V17.39H0.48999V14.39Z" fill="#19110B"/>
<path fill-rule="evenodd" clip-rule="evenodd" d="M7.48999 14.39H10.49V17.39H7.48999V14.39Z" fill="#19110B"/>
<path fill-rule="evenodd" clip-rule="evenodd" d="M14.49 14.39H17.49V17.39H14.49V14.39Z" fill="#19110B"/>
</g>
<defs>
<clipPath id="clip0_2_1092">
<rect width="17" height="17" fill="white" transform="translate(0.48999 0.390015)"/>
</clipPath>
</defs>
</svg>
